<?xml version="1.0" standalone="yes"?>
<svg xmlns="http://www.w3.org/2000/svg" width="321" height="307">
<path style="fill:#fcfdfc; stroke:none;" d="M0 0L0 307L321 307L321 0L0 0z"/>
<path style="fill:#fbe9a0; stroke:none;" d="M129.148 9.02853C123.734 12.1903 124.365 35.4993 126.603 40.8912C128.074 44.433 132.579 45.6906 135.853 43.8171C142.238 40.1626 140.777 19.1497 138.813 13.0193C137.528 9.00861 133.003 6.77734 129.148 9.02853z"/>
<path style="fill:#f2d457; stroke:none;" d="M130.148 10.0471C124.627 13.0406 125.862 33.5709 127.434 38.956C128.335 42.0449 131.522 44.6561 134.776 42.9283C140.958 39.6464 139.708 19.6453 137.882 14.0193C136.834 10.7914 133.536 8.21002 130.148 10.0471z"/>
<path style="fill:#fbe9a0; stroke:none;" d="M69.108 24.9012C57.9799 29.2362 75.5298 61.5553 85.8912 57.2539C96.4949 52.8518 78.497 21.2438 69.108 24.9012M201 31L200 31C197.697 34.9453 195.725 39.0651 193.397 43C192.007 45.348 190.631 47.717 189.135 49.9992C186.656 53.7824 177.73 60.9372 177.102 51.4198C176.556 43.1525 190.661 19.5876 199 30C200.209 24.1778 192.827 23.4343 189.185 26.4344C183.85 30.8296 176.748 43.1318 175.662 49.9992C174.687 56.1676 181.561 60.1676 186.471 56.2577C192.859 51.1714 198.372 38.583 201 31z"/>
<path style="fill:#f2d457; stroke:none;" d="M70.1049 25.9313C66.5551 26.9185 65.858 30.9417 66.8302 34C68.5791 39.5011 77.5418 59.1104 84.8951 56.3773C94.6036 52.7687 77.9612 23.7467 70.1049 25.9313M192.103 25.8511C186.135 27.643 178.657 43.3112 177.202 49C176.217 52.8496 178.269 57.4597 182.914 56.6234C189.392 55.4573 197.524 38.9103 198.925 33.0008C199.869 29.0172 196.473 24.5392 192.103 25.8511z"/>
<path style="fill:#fbe9a0; stroke:none;" d="M129 67L130 68L129 67M131 67L131 68L135 68L131 67M120 68L120 69L124 69L120 68z"/>
<path style="fill:#f2d457; stroke:none;" d="M124 68L119 69L119 70L125 69L124 68z"/>
<path style="fill:#fbe9a0; stroke:none;" d="M125 68L126 69L125 68z"/>
<path style="fill:#f2d457; stroke:none;" d="M126 68L126 69L140 69L126 68z"/>
<path style="fill:#fbe9a0; stroke:none;" d="M140 68L140 69L153 71L140 68M24.1088 69.7577C19.4651 71.5995 19.3873 77.4353 22.3179 80.7901C26.7786 85.8965 42.8839 96.2163 49.8665 93.2539C54.7384 91.1869 53.8888 85.4967 50.7708 82.3287C46.214 77.6986 30.8565 67.0814 24.1088 69.7577M113 70L113 71L119 70L113 70z"/>
<path style="fill:#f8b309; stroke:none;" d="M119 191C121.97 185.911 124.235 180.463 128.185 176.004C143.291 158.955 160.425 161.927 180 166C186.452 154.422 202.248 147.052 200.424 133C198.693 119.66 195.93 108.262 187.957 97C182.069 88.6832 173.895 81.7641 165 76.865C137.091 61.4925 100.776 69.0765 80.3002 93C57.7985 119.29 58.2465 167.086 88 188.566C94.7554 193.442 110.443 189.411 119 191z"/>
<path style="fill:#f2d457; stroke:none;" d="M141 69L141 70L145 70L141 69z"/>
<path style="fill:#fbe9a0; stroke:none;" d="M236 69.6535C229.378 71.3493 217.767 77.8822 213.438 83.1852C209.072 88.5326 213.568 94.7055 220 93.7068C226.356 92.7199 240.176 85.1188 243.837 79.787C247.797 74.0207 242.225 68.0595 236 69.6535z"/>
<path style="fill:#f2d457; stroke:none;" d="M24.2284 71.0432C20.6626 73.0924 20.8518 77.8179 23.4344 80.5293C27.3454 84.6352 44.1438 95.4775 49.696 91.9684C52.928 89.9256 52.5853 85.5609 50.1813 83.0941C46.2508 79.0608 29.757 67.866 24.2284 71.0432M115 70L115 71L118 71L115 70M148.667 70.3333L149.333 70.6667L148.667 70.3333M236.999 70.6659C231.062 71.5369 218.485 78.8472 214.742 83.5293C211.6 87.4596 213.769 92.9138 219.005 92.6775C225.293 92.3936 238.398 84.3578 242.257 79.4715C245.565 75.2833 242.145 69.9109 236.999 70.6659z"/>
<path style="fill:#fbe9a0; stroke:none;" d="M109 71L109 72L112 72L109 71z"/>
<path style="fill:#f2d457; stroke:none;" d="M112.667 71.3333L113.333 71.6667L112.667 71.3333M152.667 71.3333L153.333 71.6667L152.667 71.3333z"/>
<path style="fill:#fbe9a0; stroke:none;" d="M154.667 71.3333L155.333 71.6667L154.667 71.3333M107 72L108 73L107 72z"/>
<path style="fill:#f2d457; stroke:none;" d="M108 72L108 73L111 73L108 72M155 72L155 73L161 75L161 74L155 72z"/>
<path style="fill:#fbe9a0; stroke:none;" d="M157.667 72.3333L158.333 72.6667L157.667 72.3333M99 76L99 77L106 74L99 76z"/>
<path style="fill:#f2d457; stroke:none;" d="M106.667 73.3333L107.333 73.6667L106.667 73.3333z"/>
<path style="fill:#fbe9a0; stroke:none;" d="M160 73L161 74L160 73z"/>
<path style="fill:#f2d457; stroke:none;" d="M104.667 74.3333L105.333 74.6667L104.667 74.3333z"/>
<path style="fill:#fbe9a0; stroke:none;" d="M161 74L161 75L165 76L165 75L161 74z"/>
<path style="fill:#f2d457; stroke:none;" d="M102 75L103 76L102 75M162 75L163 76L162 75M100 76L101 77L100 76M164 76L164 77L170 80L170 79L164 76z"/>
<path style="fill:#fbe9a0; stroke:none;" d="M166 76L167 77L166 76M97 77L98 78L97 77z"/>
<path style="fill:#f2d457; stroke:none;" d="M98 77L99 78L98 77z"/>
<path style="fill:#fbe9a0; stroke:none;" d="M167.667 77.3333L168.333 77.6667L167.667 77.3333M95 78L75 98L96 79L95 78z"/>
<path style="fill:#f2d457; stroke:none;" d="M96.6667 78.3333L97.3333 78.6667L96.6667 78.3333z"/>
<path style="fill:#fbe9a0; stroke:none;" d="M169 78L169 79C178.255 85.3148 186.413 93.1937 192 103L193 103C189.208 93.1409 178.745 82.125 169 78z"/>
<path style="fill:#f2d457; stroke:none;" d="M95 79L96 80L95 79M93 80L94 81L93 80M171 80L172 81L171 80M92 81L93 82L92 81M172 81L173 82L172 81M91 82L92 83L91 82M173.667 82.3333L174.333 82.6667L173.667 82.3333M89 83L90 84L89 83M175 83L176 84L175 83M88 84L89 85L88 84M176 84L177 85L176 84M87 85L88 86L87 85M177 85L178 86L177 85M86 86L87 87L86 86M178 86L180 88L180 86L178 86M85 87L86 88L85 87M84 88L85 89L84 88M180 88L181 89L180 88M83 89L84 90L83 89M181 89L182 90L181 89M82 90L83 91L82 90M182 90L183 91L182 90M81 91L82 92L81 91M183 91L184 92L183 91M80 92L81 93L80 92M184 92L185 93L184 92M79 93L80 94L79 93M185 93L186 94L185 93M186 94L187 95L186 94M78 95L79 96L78 95M77 96L78 97L77 96M187 96L188 97L187 96M76 97L77 98L76 97M188 97L189 98L188 97M75 98L74 101L75 98M189.333 98.6667L189.667 99.3333L189.333 98.6667z"/>
<path style="fill:#fbe9a0; stroke:none;" d="M74 99L75 100L74 99z"/>
<path style="fill:#f2d457; stroke:none;" d="M190 100L191 101L190 100z"/>
<path style="fill:#fbe9a0; stroke:none;" d="M73 101L70 107L71 107L73 101z"/>
<path style="fill:#f2d457; stroke:none;" d="M191.333 101.667L191.667 102.333L191.333 101.667M73 102L74 103L73 102M192 103L194 106L192 103M72 104L73 105L72 104z"/>
<path style="fill:#fbe9a0; stroke:none;" d="M193 104L194 105L193 104M194 105L197 114L198 114L194 105z"/>
<path style="fill:#f2d457; stroke:none;" d="M71 106L72 107L71 106M70 107L69 111L70 111L70 107M194 107L195 108L194 107z"/>
<path style="fill:#fbe9a0; stroke:none;" d="M69 108L70 109L69 108z"/>
<path style="fill:#f2d457; stroke:none;" d="M195.333 109.667L195.667 110.333L195.333 109.667z"/>
<path style="fill:#fbe9a0; stroke:none;" d="M68 110L66 118L67 118L68 110z"/>
<path style="fill:#f2d457; stroke:none;" d="M68.3333 112.667L68.6667 113.333L68.3333 112.667M196.333 112.667L196.667 113.333L196.333 112.667M197 114L197 117L198 117L197 114M67.3333 115.667L67.6667 116.333L67.3333 115.667z"/>
<path style="fill:#fbe9a0; stroke:none;" d="M198 116L200 126L201 126L198 116z"/>
<path style="fill:#f2d457; stroke:none;" d="M66 118L64 130L65 130L66 118M198 118L199 119L198 118z"/>
<path style="fill:#fbe9a0; stroke:none;" d="M65.3333 119.667L65.6667 120.333L65.3333 119.667z"/>
<path style="fill:#f2d457; stroke:none;" d="M199.333 121.667L199.667 122.333L199.333 121.667z"/>
<path style="fill:#fbe9a0; stroke:none;" d="M64 123L64 126L65 126L64 123z"/>
<path style="fill:#f2d457; stroke:none;" d="M200 126L200 134L201 134L200 126z"/>
<path style="fill:#fbe9a0; stroke:none;" d="M201 127L201 136L202 136L201 127M40 138L39 138C33.0816 144.903 22.4547 143.485 14 142.956C10.7125 142.75 5.20679 141.214 5.20679 136.989C5.20679 132.134 11.4012 131.072 15 131.005C24.2513 130.831 33.6729 129.15 40 137C40.5258 126.449 5.0208 126.335 3.37654 136.015C2.66649 140.195 6.28114 143.089 10.0008 143.772C17.7057 145.185 37.3449 146.942 40 138z"/>
<path style="fill:#f2d457; stroke:none;" d="M8.05864 132.028C3.15748 134.718 4.12419 140.302 9.01929 142.258C14.3924 144.404 30.767 144.766 35.8102 141.821C40.3528 139.168 39.6884 133.675 34.956 131.742C29.6335 129.569 13.1269 129.246 8.05864 132.028z"/>
<path style="fill:#fbe9a0; stroke:none;" d="M63 131L64 132L63 131M63 133L63 142L64 142L63 133z"/>
<path style="fill:#f2d457; stroke:none;" d="M201 136L202 137L201 136z"/>
<path style="fill:#fbe9a0; stroke:none;" d="M201 137L203 144L201 137z"/>
<path style="fill:#80cdf3; stroke:none;" d="M279 208C279.966 195.778 282.218 185.108 278.251 173C268.942 144.59 237.444 131.165 210 140.029C202.46 142.465 194.713 147.303 189.289 153.09C186.149 156.44 183.016 163.999 178.409 165.363C174.524 166.514 168.011 162.873 164 162.3C156.559 161.237 147.668 162.894 141 166.324C135.034 169.393 129.885 173.414 126.094 179C123.851 182.305 122.31 187.985 118.776 190.107C114.434 192.715 105.158 189.621 100 190.174C86.1696 191.654 73.2619 198.44 64.2099 209C43.1911 233.52 50.3286 273.685 78 289.981C91.2236 297.769 105.238 297 120 297L196 297L257 297C269.239 297 281.67 298.212 293 292.627C330.751 274.018 322.74 211.819 279 208z"/>
<path style="fill:#f2d457; stroke:none;" d="M200 141L199 145L200 141M64 144L64 147L65 147L64 144M198 145L199 146L198 145M197 146L198 147L197 146z"/>
<path style="fill:#fbe9a0; stroke:none;" d="M64 147L64 151L65 151L64 147z"/>
<path style="fill:#f2d457; stroke:none;" d="M195 147L196 148L195 147M65 148L65 152L66 152L65 148M194 148L195 149L194 148M192.667 149.333L193.333 149.667L192.667 149.333M191 150L192 151L191 150M190 151L191 152L190 151z"/>
<path style="fill:#fbe9a0; stroke:none;" d="M65 152L65 155L66 155L65 152z"/>
<path style="fill:#f2d457; stroke:none;" d="M189 152L190 153L189 152M66 153L66 156L67 156L66 153M188 153L189 154L188 153M187.333 154.667L187.667 155.333L187.333 154.667z"/>
<path style="fill:#fbe9a0; stroke:none;" d="M66 156L73 173L74 173L66 156z"/>
<path style="fill:#f2d457; stroke:none;" d="M186 156L187 157L186 156M67.3333 157.667L67.6667 158.333L67.3333 157.667M185 157L186 158L185 157M184 158L185 159L184 158M68.3333 160.667L68.6667 161.333L68.3333 160.667M183 160L184 161L183 160M182.333 161.667L182.667 162.333L182.333 161.667M150 162L150 163L154 163L150 162M165 162L165 163L169 163L165 162M69 163L70 164L69 163M147 163L147 164L150 164L147 163M169 163L169 164L172 164L169 163M181 163L182 164L181 163M143.667 164.333L144.333 164.667L143.667 164.333M173 164L173 165L176 165L173 164M180 164L181 165L180 164M70.3333 165.667L70.6667 166.333L70.3333 165.667M142 165L143 166L142 165M176 165L177 166L176 165M140 166L141 167L140 166M178 166L179 167L178 166M71 167L72 168L71 167M138 167L139 168L138 167M136.667 168.333L137.333 168.667L136.667 168.333M72 169L73 170L72 169M135 169L136 170L135 169M133 170L134 171L133 170M73 171L74 172L73 171M132 171L133 172L132 171M131 172L132 173L131 172M74 173L79 179L74 173M130 173L131 174L130 173z"/>
<path style="fill:#fbe9a0; stroke:none;" d="M74 174L75 175L74 174z"/>
<path style="fill:#f2d457; stroke:none;" d="M129 174L130 175L129 174M128 175L129 176L128 175z"/>
<path style="fill:#fbe9a0; stroke:none;" d="M75 176L76 177L75 176z"/>
<path style="fill:#f2d457; stroke:none;" d="M127 176L128 177L127 176z"/>
<path style="fill:#fbe9a0; stroke:none;" d="M76 177L77 178L76 177z"/>
<path style="fill:#f2d457; stroke:none;" d="M126.333 177.667L126.667 178.333L126.333 177.667z"/>
<path style="fill:#fbe9a0; stroke:none;" d="M77 178L89 191L77 178z"/>
<path style="fill:#f2d457; stroke:none;" d="M125 179L126 180L125 179z"/>
<path style="fill:#fbe9a0; stroke:none;" d="M27 191C30.4903 189.539 33.7144 187.723 37 185.85C39.8248 184.239 43.548 181.255 46.9815 181.542C53.257 182.068 52.3408 188.639 48.659 191.564C43.6061 195.578 34.4733 201.747 28.0039 202.69C19.7652 203.89 22.2546 195.387 26 192C18.4724 191.838 18.8657 203.338 26.0046 204.627C32.0591 205.72 50.7204 194.586 52.9506 188.896C58.1234 175.697 39.5335 182.539 35 185.19C32.0011 186.944 29.3171 188.415 27 191z"/>
<path style="fill:#f2d457; stroke:none;" d="M79 180L80 181L79 180M124.333 180.667L124.667 181.333L124.333 180.667M44 181.704C38.1093 183.509 27.8676 188.803 23.7245 193.39C20.0449 197.464 21.7237 204.102 28.0039 203.174C34.3188 202.24 46.8609 195.298 50.7569 190.215C54.6973 185.073 49.4882 180.021 44 181.704M80 181L81 182L80 181M81 182L82 183L81 182M123.333 182.667L123.667 183.333L123.333 182.667M82 183L83 184L82 183M83 184L84 185L83 184M122 184L123 185L122 184M84 185L85 186L84 185M85 186L86 187L85 186M121.333 186.667L121.667 187.333L121.333 186.667M86 187L87 188L86 187M87 188L88 189L87 188M120.333 188.667L120.667 189.333L120.333 188.667M88 189L89 190L88 189M103 189L104 190L103 189M105 189L105 190L108 190L105 189M89 190L89 191L94 192L94 191L89 190M95 190L95 191L98 191L95 190M112 190L112 191L117 191L112 190M119 190L120 191L119 190z"/>
<path style="fill:#fbe9a0; stroke:none;" d="M90 191L91 192L90 191z"/>
<path style="fill:#f2d457; stroke:none;" d="M117.667 191.333L118.333 191.667L117.667 191.333z"/>
</svg>
